<svg id="st-bot" class="chart " viewBox="0 0 500 380" role="img" aria-label="Botanical style: a two-families bowtie chart with olive, ochre and rose tints and a laurel" xmlns="http://www.w3.org/2000/svg"><style>#st-bot .nm{fill:#3E3B28;text-anchor:middle;dominant-baseline:central}#st-bot .dt{fill:#7C7556;font-family:'EB Garamond';text-anchor:middle;dominant-baseline:central}#st-bot path{stroke:#6E6A4B;stroke-width:0.45;stroke-linejoin:round}#st-bot defs path{stroke:none}</style><rect width="500" height="380" fill="#FBF8F1"/><rect x="12" y="12" width="476" height="356" fill="none" stroke="#8C8660" stroke-width="1"/><rect x="15" y="15" width="470" height="350" fill="none" stroke="#8C8660" stroke-width=".5"/><defs><path id="st-botla2" d="M196.4 176A53.6 53.6 0 0 0 236.1 227.8"/><path id="st-botlb2" d="M186.3 176A63.7 63.7 0 0 0 233.5 237.6"/><path id="st-botla3" d="M187.6 176A62.4 62.4 0 0 1 233.9 115.7"/><path id="st-botlb3" d="M197.7 176A52.3 52.3 0 0 1 236.5 125.5"/><path id="st-botla4" d="M179.9 229.8A88.4 88.4 0 0 0 227.1 261.4"/><path id="st-botlb4" d="M173.4 234.8A96.6 96.6 0 0 0 225 269.3"/><path id="st-botla5" d="M161.6 176A88.4 88.4 0 0 0 179.9 229.8"/><path id="st-botlb5" d="M153.4 176A96.6 96.6 0 0 0 173.4 234.8"/><path id="st-botla6" d="M154.4 176A95.6 95.6 0 0 1 174.2 117.8"/><path id="st-botlb6" d="M162.6 176A87.4 87.4 0 0 1 180.7 122.8"/><path id="st-botla7" d="M174.2 117.8A95.6 95.6 0 0 1 225.3 83.7"/><path id="st-botlb7" d="M180.7 122.8A87.4 87.4 0 0 1 227.4 91.6"/><path id="st-botra2" d="M266.1 115.7A62.4 62.4 0 0 1 312.4 176"/><path id="st-botrb2" d="M263.5 125.5A52.3 52.3 0 0 1 302.3 176"/><path id="st-botra3" d="M263.9 227.8A53.6 53.6 0 0 0 303.6 176"/><path id="st-botrb3" d="M266.5 237.6A63.7 63.7 0 0 0 313.7 176"/><path id="st-botra4" d="M274.7 83.7A95.6 95.6 0 0 1 325.8 117.8"/><path id="st-botrb4" d="M272.6 91.6A87.4 87.4 0 0 1 319.3 122.8"/><path id="st-botra5" d="M325.8 117.8A95.6 95.6 0 0 1 345.6 176"/><path id="st-botrb5" d="M319.3 122.8A87.4 87.4 0 0 1 337.4 176"/><path id="st-botra6" d="M320.1 229.8A88.4 88.4 0 0 0 338.4 176"/><path id="st-botrb6" d="M326.6 234.8A96.6 96.6 0 0 0 346.6 176"/><path id="st-botra7" d="M272.9 261.4A88.4 88.4 0 0 0 320.1 229.8"/><path id="st-botrb7" d="M275 269.3A96.6 96.6 0 0 0 326.6 234.8"/></defs><g class="r1"><path d="M230.3 249.4A76 76 0 0 1 174 176L210 176A40 40 0 0 0 239.6 214.6Z" fill="#DCE0C4"/><path d="M174 176A76 76 0 0 1 230.3 102.6L239.6 137.4A40 40 0 0 0 210 176Z" fill="#DCE0C4"/><g class="tx"><text class="nm" font-size="8.5" font-family="'EB Garamond'" font-weight="400"><textPath href="#st-botla2" startOffset="50%">George III</textPath></text><text class="dt" font-size="5.8"><textPath href="#st-botlb2" startOffset="50%">1738–1820</textPath></text><text class="nm" font-size="8.5" font-family="'EB Garamond'" font-weight="400"><textPath href="#st-botla3" startOffset="50%">Charlotte</textPath></text><text class="dt" font-size="5.8"><textPath href="#st-botlb3" startOffset="50%">1744–1818</textPath></text></g></g><g class="r2"><path d="M222 280.3A108 108 0 0 1 164.3 241.7L189.7 222.3A76 76 0 0 0 230.3 249.4Z" fill="#EFDDB7"/><path d="M164.3 241.7A108 108 0 0 1 142 176L174 176A76 76 0 0 0 189.7 222.3Z" fill="#EFDDB7"/><path d="M142 176A108 108 0 0 1 164.3 110.3L189.7 129.7A76 76 0 0 0 174 176Z" fill="#EFDDB7"/><path d="M164.3 110.3A108 108 0 0 1 222 71.7L230.3 102.6A76 76 0 0 0 189.7 129.7Z" fill="#EFDDB7"/><g class="tx"><text class="nm" font-size="6.8" font-family="'EB Garamond'" font-weight="400"><textPath href="#st-botla4" startOffset="50%">Frederick</textPath></text><text class="dt" font-size="4.8"><textPath href="#st-botlb4" startOffset="50%">1707–1751</textPath></text><text class="nm" font-size="5.6" font-family="'EB Garamond'" font-weight="400"><textPath href="#st-botla5" startOffset="50%">Augusta of Saxe-Gotha</textPath></text><text class="dt" font-size="4.8"><textPath href="#st-botlb5" startOffset="50%">1719–1772</textPath></text><text class="nm" font-size="5.9" font-family="'EB Garamond'" font-weight="400"><textPath href="#st-botla6" startOffset="50%">Charles Louis Frederick</textPath></text><text class="dt" font-size="4.8"><textPath href="#st-botlb6" startOffset="50%">1708–1752</textPath></text><text class="nm" font-size="6.8" font-family="'EB Garamond'" font-weight="400"><textPath href="#st-botla7" startOffset="50%">Elizabeth Albertine</textPath></text><text class="dt" font-size="4.8"><textPath href="#st-botlb7" startOffset="50%">1713–1761</textPath></text></g></g><g class="r3"><path d="M214.3 309.3A138 138 0 0 1 173.3 290.7L190 265.8A108 108 0 0 0 222 280.3Z" fill="#EFD3CC"/><path d="M173.3 290.7A138 138 0 0 1 140.5 260L164.3 241.7A108 108 0 0 0 190 265.8Z" fill="#EFD3CC"/><path d="M140.5 260A138 138 0 0 1 119.3 220.4L147.7 210.7A108 108 0 0 0 164.3 241.7Z" fill="#EFD3CC"/><path d="M119.3 220.4A138 138 0 0 1 112 176L142 176A108 108 0 0 0 147.7 210.7Z" fill="#EFD3CC"/><path d="M112 176A138 138 0 0 1 119.3 131.6L147.7 141.3A108 108 0 0 0 142 176Z" fill="#EFD3CC"/><path d="M119.3 131.6A138 138 0 0 1 140.5 92L164.3 110.3A108 108 0 0 0 147.7 141.3Z" fill="#EFD3CC"/><path d="M140.5 92A138 138 0 0 1 173.3 61.3L190 86.2A108 108 0 0 0 164.3 110.3Z" fill="#EFD3CC"/><path d="M173.3 61.3A138 138 0 0 1 214.3 42.7L222 71.7A108 108 0 0 0 190 86.2Z" fill="#EFD3CC"/><g class="tx"><g transform="translate(199.2 288) rotate(-65.6)"><text class="nm" font-size="5.6" y="-2.8" font-family="'EB Garamond'" font-weight="400">George II</text><text class="dt" font-size="4.1" y="3.5">1683–1760</text></g><g transform="translate(165.9 265.8) rotate(-46.9)"><text class="nm" font-size="5.6" y="-2.8" font-family="'EB Garamond'" font-weight="400">Caroline</text><text class="dt" font-size="4.1" y="3.5">1683–1737</text></g><g transform="translate(141.5 234) rotate(-28.1)"><text class="nm" font-size="5.6" y="-2.8" font-family="'EB Garamond'" font-weight="400">Frederick II</text><text class="dt" font-size="4.1" y="3.5">1676–1732</text></g><g transform="translate(128.6 196) rotate(-9.4)"><text class="nm" font-size="5.6" y="-2.8" font-family="'EB Garamond'" font-weight="400">Magdalena</text><text class="dt" font-size="4.1" y="3.5">1679–1740</text></g><g transform="translate(128.6 156) rotate(9.4)"><text class="nm" font-size="5.6" y="-2.8" font-family="'EB Garamond'" font-weight="400">Adolf F. II</text><text class="dt" font-size="4.1" y="3.5">1658–1708</text></g><g transform="translate(141.5 118) rotate(28.1)"><text class="nm" font-size="5.6" y="-2.8" font-family="'EB Garamond'" font-weight="400">Christiane</text><text class="dt" font-size="4.1" y="3.5">1681–1751</text></g><g transform="translate(165.9 86.2) rotate(46.9)"><text class="nm" font-size="5.6" y="-2.8" font-family="'EB Garamond'" font-weight="400">Ernest F. I</text><text class="dt" font-size="4.1" y="3.5">1681–1740</text></g><g transform="translate(199.2 64) rotate(65.6)"><text class="nm" font-size="5.6" y="-2.8" font-family="'EB Garamond'" font-weight="400">Sophia</text><text class="dt" font-size="4.1" y="3.5">1683–1742</text></g></g></g><g class="r4"><path d="M206 340.2A170 170 0 0 1 179.8 330.8L193 301.7A138 138 0 0 0 214.3 309.3Z" fill="#E3E6D2"/><path d="M179.8 330.8A170 170 0 0 1 155.6 317.3L173.3 290.7A138 138 0 0 0 193 301.7Z" fill="#E3E6D2"/><path d="M155.6 317.3A170 170 0 0 1 133.8 300.1L155.7 276.7A138 138 0 0 0 173.3 290.7Z" fill="#E3E6D2"/><path d="M133.8 300.1A170 170 0 0 1 115.1 279.5L140.5 260A138 138 0 0 0 155.7 276.7Z" fill="#E3E6D2"/><path d="M115.1 279.5A170 170 0 0 1 100.1 256.1L128.3 241.1A138 138 0 0 0 140.5 260Z" fill="#E3E6D2"/><path d="M100.1 256.1A170 170 0 0 1 89 230.6L119.3 220.4A138 138 0 0 0 128.3 241.1Z" fill="#E3E6D2"/><path d="M89 230.6A170 170 0 0 1 82.3 203.7L113.8 198.5A138 138 0 0 0 119.3 220.4Z" fill="#E3E6D2"/><path d="M82.3 203.7A170 170 0 0 1 80 176L112 176A138 138 0 0 0 113.8 198.5Z" fill="#E3E6D2"/><path d="M80 176A170 170 0 0 1 82.3 148.3L113.8 153.5A138 138 0 0 0 112 176Z" fill="#E3E6D2"/><path d="M82.3 148.3A170 170 0 0 1 89 121.4L119.3 131.6A138 138 0 0 0 113.8 153.5Z" fill="#E3E6D2"/><path d="M89 121.4A170 170 0 0 1 100.1 95.9L128.3 110.9A138 138 0 0 0 119.3 131.6Z" fill="#E3E6D2"/><path d="M100.1 95.9A170 170 0 0 1 115.1 72.5L140.5 92A138 138 0 0 0 128.3 110.9Z" fill="#E3E6D2"/><path d="M115.1 72.5A170 170 0 0 1 133.8 51.9L155.7 75.3A138 138 0 0 0 140.5 92Z" fill="#E3E6D2"/><path d="M133.8 51.9A170 170 0 0 1 155.6 34.7L173.3 61.3A138 138 0 0 0 155.7 75.3Z" fill="#E3E6D2"/><path d="M155.6 34.7A170 170 0 0 1 179.8 21.2L193 50.3A138 138 0 0 0 173.3 61.3Z" fill="#E3E6D2"/><path d="M179.8 21.2A170 170 0 0 1 206 11.8L214.3 42.7A138 138 0 0 0 193 50.3Z" fill="#E3E6D2"/><g class="tx"><g transform="translate(198.1 321) rotate(-70.3)"><text class="nm" font-size="4.8" y="-2.4" font-family="'EB Garamond'" font-weight="400">George I</text><text class="dt" font-size="3.5" y="3">1660–1727</text></g><g transform="translate(175.2 310.6) rotate(-60.9)"><text class="nm" font-size="4.2" y="-2.3" font-family="'EB Garamond'" font-weight="400">Sophia Dorothea</text><text class="dt" font-size="3.5" y="2.6">1666–1726</text></g><g transform="translate(154.3 296.6) rotate(-51.6)"><text class="nm" font-size="4.8" y="-2.4" font-family="'EB Garamond'" font-weight="400">John Frederick</text><text class="dt" font-size="3.5" y="3">1654–1686</text></g><g transform="translate(135.9 279.4) rotate(-42.2)"><text class="nm" font-size="4.8" y="-2.4" font-family="'EB Garamond'" font-weight="400">Eleonore</text><text class="dt" font-size="3.5" y="3">1662–1696</text></g><g transform="translate(120.6 259.5) rotate(-32.8)"><text class="nm" font-size="4.8" y="-2.4" font-family="'EB Garamond'" font-weight="400">Frederick I</text><text class="dt" font-size="3.5" y="3">1646–1691</text></g><g transform="translate(108.7 237.3) rotate(-23.4)"><text class="nm" font-size="4" y="-2.2" font-family="'EB Garamond'" font-weight="400">Magdalena Sibylle</text><text class="dt" font-size="3.5" y="2.5">1648–1681</text></g><g transform="translate(100.6 213.4) rotate(-14.1)"><text class="nm" font-size="4.8" y="-2.4" font-family="'EB Garamond'" font-weight="400">Karl</text><text class="dt" font-size="3.5" y="3">1652–1718</text></g><g transform="translate(96.5 188.6) rotate(-4.7)"><text class="nm" font-size="4.8" y="-2.4" font-family="'EB Garamond'" font-weight="400">Sophia</text><text class="dt" font-size="3.5" y="3">1654–1724</text></g><g transform="translate(96.5 163.4) rotate(4.7)"><text class="nm" font-size="4.2" y="-2.3" font-family="'EB Garamond'" font-weight="400">Adolf Friedrich I</text><text class="dt" font-size="3.5" y="2.7">1588–1658</text></g><g transform="translate(100.6 138.6) rotate(14.1)"><text class="nm" font-size="4.4" y="-2.3" font-family="'EB Garamond'" font-weight="400">Marie Katharina</text><text class="dt" font-size="3.5" y="2.7">1616–1665</text></g><g transform="translate(108.7 114.7) rotate(23.4)"><text class="nm" font-size="4.8" y="-2.4" font-family="'EB Garamond'" font-weight="400">Christian W. I</text><text class="dt" font-size="3.5" y="3">1647–1721</text></g><g transform="translate(120.6 92.5) rotate(32.8)"><text class="nm" font-size="4.6" y="-2.3" font-family="'EB Garamond'" font-weight="400">Antonie Sybille</text><text class="dt" font-size="3.5" y="2.9">1641–1684</text></g><g transform="translate(135.9 72.6) rotate(42.2)"><text class="nm" font-size="4.8" y="-2.4" font-family="'EB Garamond'" font-weight="400">Ernest</text><text class="dt" font-size="3.5" y="3">1655–1715</text></g><g transform="translate(154.3 55.4) rotate(51.6)"><text class="nm" font-size="4.2" y="-2.3" font-family="'EB Garamond'" font-weight="400">Sophie Henriette</text><text class="dt" font-size="3.5" y="2.6">1662–1702</text></g><g transform="translate(175.2 41.4) rotate(60.9)"><text class="nm" font-size="4.5" y="-2.3" font-family="'EB Garamond'" font-weight="400">Georg Ludwig I</text><text class="dt" font-size="3.5" y="2.8">1643–1693</text></g><g transform="translate(198.1 31) rotate(70.3)"><text class="nm" font-size="4.1" y="-2.3" font-family="'EB Garamond'" font-weight="400">Amalia Catherine</text><text class="dt" font-size="3.5" y="2.5">1640–1697</text></g></g></g><g class="r1"><path d="M269.7 102.6A76 76 0 0 1 326 176L290 176A40 40 0 0 0 260.4 137.4Z" fill="#DCE0C4"/><path d="M326 176A76 76 0 0 1 269.7 249.4L260.4 214.6A40 40 0 0 0 290 176Z" fill="#DCE0C4"/><g class="tx"><text class="nm" font-size="8.5" font-family="'EB Garamond'" font-weight="400"><textPath href="#st-botra2" startOffset="50%">Francis</textPath></text><text class="dt" font-size="5.8"><textPath href="#st-botrb2" startOffset="50%">1750–1806</textPath></text><text class="nm" font-size="8.5" font-family="'EB Garamond'" font-weight="400"><textPath href="#st-botra3" startOffset="50%">Augusta Reuss</textPath></text><text class="dt" font-size="5.8"><textPath href="#st-botrb3" startOffset="50%">1757–1831</textPath></text></g></g><g class="r2"><path d="M278 71.7A108 108 0 0 1 335.7 110.3L310.3 129.7A76 76 0 0 0 269.7 102.6Z" fill="#EFDDB7"/><path d="M335.7 110.3A108 108 0 0 1 358 176L326 176A76 76 0 0 0 310.3 129.7Z" fill="#EFDDB7"/><path d="M358 176A108 108 0 0 1 335.7 241.7L310.3 222.3A76 76 0 0 0 326 176Z" fill="#EFDDB7"/><path d="M335.7 241.7A108 108 0 0 1 278 280.3L269.7 249.4A76 76 0 0 0 310.3 222.3Z" fill="#EFDDB7"/><g class="tx"><text class="nm" font-size="6.8" font-family="'EB Garamond'" font-weight="400"><textPath href="#st-botra4" startOffset="50%">Ernest Frederick</textPath></text><text class="dt" font-size="4.8"><textPath href="#st-botrb4" startOffset="50%">1724–1800</textPath></text><text class="nm" font-size="6.8" font-family="'EB Garamond'" font-weight="400"><textPath href="#st-botra5" startOffset="50%">Sophie Antoinette</textPath></text><text class="dt" font-size="4.8"><textPath href="#st-botrb5" startOffset="50%">1724–1802</textPath></text><text class="nm" font-size="6.8" font-family="'EB Garamond'" font-weight="400"><textPath href="#st-botra6" startOffset="50%">Henry XXIV</textPath></text><text class="dt" font-size="4.8"><textPath href="#st-botrb6" startOffset="50%">1724–1779</textPath></text><text class="nm" font-size="6.8" font-family="'EB Garamond'" font-weight="400"><textPath href="#st-botra7" startOffset="50%">Karoline Ernestine</textPath></text><text class="dt" font-size="4.8"><textPath href="#st-botrb7" startOffset="50%">1727–1796</textPath></text></g></g><g class="r3"><path d="M285.7 42.7A138 138 0 0 1 326.7 61.3L310 86.2A108 108 0 0 0 278 71.7Z" fill="#EFD3CC"/><path d="M326.7 61.3A138 138 0 0 1 359.5 92L335.7 110.3A108 108 0 0 0 310 86.2Z" fill="#EFD3CC"/><path d="M359.5 92A138 138 0 0 1 380.7 131.6L352.3 141.3A108 108 0 0 0 335.7 110.3Z" fill="#EFD3CC"/><path d="M380.7 131.6A138 138 0 0 1 388 176L358 176A108 108 0 0 0 352.3 141.3Z" fill="#EFD3CC"/><path d="M388 176A138 138 0 0 1 380.7 220.4L352.3 210.7A108 108 0 0 0 358 176Z" fill="#EFD3CC"/><path d="M380.7 220.4A138 138 0 0 1 359.5 260L335.7 241.7A108 108 0 0 0 352.3 210.7Z" fill="#EFD3CC"/><path d="M359.5 260A138 138 0 0 1 326.7 290.7L310 265.8A108 108 0 0 0 335.7 241.7Z" fill="#EFD3CC"/><path d="M326.7 290.7A138 138 0 0 1 285.7 309.3L278 280.3A108 108 0 0 0 310 265.8Z" fill="#EFD3CC"/><g class="tx"><g transform="translate(300.8 64) rotate(-65.6)"><text class="nm" font-size="5.1" y="-2.7" font-family="'EB Garamond'" font-weight="400">Francis Josias</text><text class="dt" font-size="4.1" y="3.2">1697–1764</text></g><g transform="translate(334.1 86.2) rotate(-46.9)"><text class="nm" font-size="5.2" y="-2.7" font-family="'EB Garamond'" font-weight="400">Anna Sophie</text><text class="dt" font-size="4.1" y="3.2">1700–1780</text></g><g transform="translate(358.5 118) rotate(-28.1)"><text class="nm" font-size="5.6" y="-2.8" font-family="'EB Garamond'" font-weight="400">Ferdinand</text><text class="dt" font-size="4.1" y="3.5">1680–1735</text></g><g transform="translate(371.4 156) rotate(-9.4)"><text class="nm" font-size="5.6" y="-2.8" font-family="'EB Garamond'" font-weight="400">Antoinette</text><text class="dt" font-size="4.1" y="3.5">1696–1762</text></g><g transform="translate(371.4 196) rotate(9.4)"><text class="nm" font-size="5.6" y="-2.8" font-family="'EB Garamond'" font-weight="400">Heinrich</text><text class="dt" font-size="4.1" y="3.5">1699–1747</text></g><g transform="translate(358.5 234) rotate(28.1)"><text class="nm" font-size="4.8" y="-2.6" font-family="'EB Garamond'" font-weight="400">Sofia Teodora</text><text class="dt" font-size="4.1" y="3">1703–1777</text></g><g transform="translate(334.1 265.8) rotate(46.9)"><text class="nm" font-size="4.8" y="-2.6" font-family="'EB Garamond'" font-weight="400">Georg August</text><text class="dt" font-size="4.1" y="3">1691–1758</text></g><g transform="translate(300.8 288) rotate(65.6)"><text class="nm" font-size="5.6" y="-2.8" font-family="'EB Garamond'" font-weight="400">Ferdinande</text><text class="dt" font-size="4.1" y="3.5">1699–1750</text></g></g></g><g class="r4"><path d="M294 11.8A170 170 0 0 1 320.2 21.2L307 50.3A138 138 0 0 0 285.7 42.7Z" fill="#E3E6D2"/><path d="M320.2 21.2A170 170 0 0 1 344.4 34.7L326.7 61.3A138 138 0 0 0 307 50.3Z" fill="#E3E6D2"/><path d="M344.4 34.7A170 170 0 0 1 366.2 51.9L344.3 75.3A138 138 0 0 0 326.7 61.3Z" fill="#E3E6D2"/><path d="M366.2 51.9A170 170 0 0 1 384.9 72.5L359.5 92A138 138 0 0 0 344.3 75.3Z" fill="#E3E6D2"/><path d="M384.9 72.5A170 170 0 0 1 399.9 95.9L371.7 110.9A138 138 0 0 0 359.5 92Z" fill="#E3E6D2"/><path d="M399.9 95.9A170 170 0 0 1 411 121.4L380.7 131.6A138 138 0 0 0 371.7 110.9Z" fill="#E3E6D2"/><path d="M411 121.4A170 170 0 0 1 417.7 148.3L386.2 153.5A138 138 0 0 0 380.7 131.6Z" fill="#E3E6D2"/><path d="M417.7 148.3A170 170 0 0 1 420 176L388 176A138 138 0 0 0 386.2 153.5Z" fill="#E3E6D2"/><path d="M420 176A170 170 0 0 1 417.7 203.7L386.2 198.5A138 138 0 0 0 388 176Z" fill="#E3E6D2"/><path d="M417.7 203.7A170 170 0 0 1 411 230.6L380.7 220.4A138 138 0 0 0 386.2 198.5Z" fill="#E3E6D2"/><path d="M411 230.6A170 170 0 0 1 399.9 256.1L371.7 241.1A138 138 0 0 0 380.7 220.4Z" fill="#E3E6D2"/><path d="M399.9 256.1A170 170 0 0 1 384.9 279.5L359.5 260A138 138 0 0 0 371.7 241.1Z" fill="#E3E6D2"/><path d="M384.9 279.5A170 170 0 0 1 366.2 300.1L344.3 276.7A138 138 0 0 0 359.5 260Z" fill="#E3E6D2"/><path d="M366.2 300.1A170 170 0 0 1 344.4 317.3L326.7 290.7A138 138 0 0 0 344.3 276.7Z" fill="#E3E6D2"/><path d="M344.4 317.3A170 170 0 0 1 320.2 330.8L307 301.7A138 138 0 0 0 326.7 290.7Z" fill="#E3E6D2"/><path d="M320.2 330.8A170 170 0 0 1 294 340.2L285.7 309.3A138 138 0 0 0 307 301.7Z" fill="#E3E6D2"/><g class="tx"><g transform="translate(301.9 31) rotate(-70.3)"><text class="nm" font-size="4.8" y="-2.3" font-family="'EB Garamond'" font-weight="400">John Ernest IV</text><text class="dt" font-size="3.5" y="3">1658–1729</text></g><g transform="translate(324.8 41.4) rotate(-60.9)"><text class="nm" font-size="3.9" y="-2.2" font-family="'EB Garamond'" font-weight="400">Charlotte Johanna</text><text class="dt" font-size="3.5" y="2.4">1664–1699</text></g><g transform="translate(345.7 55.4) rotate(-51.6)"><text class="nm" font-size="4.2" y="-2.3" font-family="'EB Garamond'" font-weight="400">Louis Frederick I</text><text class="dt" font-size="3.5" y="2.6">1667–1718</text></g><g transform="translate(364.1 72.6) rotate(-42.2)"><text class="nm" font-size="4.8" y="-2.4" font-family="'EB Garamond'" font-weight="400">Anna Sophie</text><text class="dt" font-size="3.5" y="3">1670–1728</text></g><g transform="translate(379.4 92.5) rotate(-32.8)"><text class="nm" font-size="4.8" y="-2.4" font-family="'EB Garamond'" font-weight="400">Ferdinand A. I</text><text class="dt" font-size="3.5" y="3">1636–1687</text></g><g transform="translate(391.3 114.7) rotate(-23.4)"><text class="nm" font-size="4.8" y="-2.4" font-family="'EB Garamond'" font-weight="400">Christine</text><text class="dt" font-size="3.5" y="3">1649–1702</text></g><g transform="translate(399.4 138.6) rotate(-14.1)"><text class="nm" font-size="4.7" y="-2.3" font-family="'EB Garamond'" font-weight="400">Louis Rudolph</text><text class="dt" font-size="3.5" y="2.9">1671–1735</text></g><g transform="translate(403.5 163.4) rotate(-4.7)"><text class="nm" font-size="4.3" y="-2.3" font-family="'EB Garamond'" font-weight="400">Christine Louise</text><text class="dt" font-size="3.5" y="2.7">1671–1747</text></g><g transform="translate(403.5 188.6) rotate(4.7)"><text class="nm" font-size="4.8" y="-2.4" font-family="'EB Garamond'" font-weight="400">Heinrich X</text><text class="dt" font-size="3.5" y="3">1662–1711</text></g><g transform="translate(399.4 213.4) rotate(14.1)"><text class="nm" font-size="4.1" y="-2.3" font-family="'EB Garamond'" font-weight="400">Erdmute Benigna</text><text class="dt" font-size="3.5" y="2.6">1670–1732</text></g><g transform="translate(391.3 237.3) rotate(23.4)"><text class="nm" font-size="4.8" y="-2.4" font-family="'EB Garamond'" font-weight="400">Wolfgang</text><text class="dt" font-size="3.5" y="3">1641–1709</text></g><g transform="translate(379.4 259.5) rotate(32.8)"><text class="nm" font-size="4.1" y="-2.3" font-family="'EB Garamond'" font-weight="400">Dorothea Renata</text><text class="dt" font-size="3.5" y="2.6">1669–1743</text></g><g transform="translate(364.1 279.4) rotate(42.2)"><text class="nm" font-size="4.3" y="-2.3" font-family="'EB Garamond'" font-weight="400">George Albert II</text><text class="dt" font-size="3.5" y="2.7">1648–1717</text></g><g transform="translate(345.7 296.6) rotate(51.6)"><text class="nm" font-size="4.8" y="-2.4" font-family="'EB Garamond'" font-weight="400">Anna Dorotea</text><text class="dt" font-size="3.5" y="3">1656–1724</text></g><g transform="translate(324.8 310.6) rotate(60.9)"><text class="nm" font-size="4.6" y="-2.3" font-family="'EB Garamond'" font-weight="400">Louis Christian</text><text class="dt" font-size="3.5" y="2.9">1652–1710</text></g><g transform="translate(301.9 321) rotate(70.3)"><text class="nm" font-size="4.8" y="-2.4" font-family="'EB Garamond'" font-weight="400">Christine</text><text class="dt" font-size="3.5" y="3">1663–1749</text></g></g></g><circle cx="250" cy="176" r="40" fill="#FBF8F1" stroke="#6E6A4B" stroke-width=".8"/><text class="nm" x="250" y="164" font-size="9" font-family="'EB Garamond'">Edward</text><text class="nm" x="250" y="177" font-size="8" font-family="'EB Garamond'" font-style="italic">&amp;</text><text class="nm" x="250" y="189" font-size="9" font-family="'EB Garamond'">Victoria</text><text class="dt" x="250" y="201" font-size="5.5">1767 · 1786</text><path d="M246 322Q214.8 328 186 300" fill="none" stroke="#7D8757" stroke-width=".9"/><ellipse cx="236.4" cy="320.7" rx="4.5" ry="1.7" transform="rotate(213.2 236.4 320.7)" fill="#7D8757"/><ellipse cx="230.5" cy="325.3" rx="4.3" ry="1.7" transform="rotate(-216.5 230.5 325.3)" fill="#7D8757"/><ellipse cx="224.9" cy="319.9" rx="4.2" ry="1.6" transform="rotate(-134.2 224.9 319.9)" fill="#7D8757"/><ellipse cx="218.2" cy="322.8" rx="4" ry="1.6" transform="rotate(-203.9 218.2 322.8)" fill="#7D8757"/><ellipse cx="213.6" cy="316.6" rx="3.9" ry="1.5" transform="rotate(-121.9 213.6 316.6)" fill="#7D8757"/><ellipse cx="206.2" cy="317.7" rx="3.7" ry="1.4" transform="rotate(-192.2 206.2 317.7)" fill="#7D8757"/><ellipse cx="202.4" cy="310.8" rx="3.6" ry="1.4" transform="rotate(-110.9 202.4 310.8)" fill="#7D8757"/><ellipse cx="194.6" cy="310" rx="3.4" ry="1.3" transform="rotate(-182.1 194.6 310)" fill="#7D8757"/><ellipse cx="191.2" cy="302.4" rx="3.3" ry="1.3" transform="rotate(-101.7 191.2 302.4)" fill="#7D8757"/><ellipse cx="184" cy="298" rx="3.6" ry="1.5" transform="rotate(55 184 298)" fill="#7D8757"/><path d="M254 322Q285.2 328 314 300" fill="none" stroke="#7D8757" stroke-width=".9"/><ellipse cx="263.1" cy="325.6" rx="4.5" ry="1.7" transform="rotate(42.8 263.1 325.6)" fill="#7D8757"/><ellipse cx="269.4" cy="320.6" rx="4.3" ry="1.7" transform="rotate(-39.5 269.4 320.6)" fill="#7D8757"/><ellipse cx="275.7" cy="324.4" rx="4.2" ry="1.6" transform="rotate(30.2 275.7 324.4)" fill="#7D8757"/><ellipse cx="280.8" cy="318.5" rx="4" ry="1.6" transform="rotate(-52.1 280.8 318.5)" fill="#7D8757"/><ellipse cx="287.9" cy="320.6" rx="3.9" ry="1.5" transform="rotate(17.9 287.9 320.6)" fill="#7D8757"/><ellipse cx="292" cy="314" rx="3.7" ry="1.4" transform="rotate(-63.8 292 314)" fill="#7D8757"/><ellipse cx="299.6" cy="314.1" rx="3.6" ry="1.4" transform="rotate(6.9 299.6 314.1)" fill="#7D8757"/><ellipse cx="303.2" cy="306.9" rx="3.4" ry="1.3" transform="rotate(-73.9 303.2 306.9)" fill="#7D8757"/><ellipse cx="311.1" cy="305.1" rx="3.3" ry="1.3" transform="rotate(-2.3 311.1 305.1)" fill="#7D8757"/><ellipse cx="316" cy="298" rx="3.6" ry="1.5" transform="rotate(-55 316 298)" fill="#7D8757"/><circle cx="250" cy="323" r="2" fill="#7D8757"/><text x="250" y="348" font-family="'EB Garamond'" font-weight="400" font-size="9" letter-spacing="2" fill="#3E3B28" text-anchor="middle">TWO FAMILIES · KENT &amp; SAXE-COBURG</text></svg>