<svg class="glyph" viewBox="0 0 80 80" aria-hidden="true" focusable="false"><g fill="none" stroke="currentColor" stroke-width="1.5"><path d="M36.4 53.5A14 14 0 0 1 36.4 26.5" fill="none"/><path d="M34 62.2A23 23 0 0 1 34 17.8" fill="none"/><path d="M31.7 70.9A32 32 0 0 1 31.7 9.1" fill="none"/><line x1="36.4" y1="53.5" x2="34" y2="62.2"/><line x1="26" y1="40" x2="17" y2="40"/><line x1="36.4" y1="26.5" x2="34" y2="17.8"/><line x1="34" y1="62.2" x2="31.7" y2="70.9"/><line x1="21.8" y1="54" x2="14.6" y2="59.5"/><line x1="17" y1="40" x2="8" y2="40"/><line x1="21.8" y1="26" x2="14.6" y2="20.5"/><line x1="34" y1="17.8" x2="31.7" y2="9.1"/><path d="M43.6 26.5A14 14 0 0 1 43.6 53.5" fill="none"/><path d="M46 17.8A23 23 0 0 1 46 62.2" fill="none"/><path d="M48.3 9.1A32 32 0 0 1 48.3 70.9" fill="none"/><line x1="43.6" y1="26.5" x2="46" y2="17.8"/><line x1="54" y1="40" x2="63" y2="40"/><line x1="43.6" y1="53.5" x2="46" y2="62.2"/><line x1="46" y1="17.8" x2="48.3" y2="9.1"/><line x1="58.2" y1="26" x2="65.4" y2="20.5"/><line x1="63" y1="40" x2="72" y2="40"/><line x1="58.2" y1="54" x2="65.4" y2="59.5"/><line x1="46" y1="62.2" x2="48.3" y2="70.9"/><circle cx="40" cy="40" r="9"/></g></svg>