<svg id="st-gilt" class="chart " viewBox="0 0 400 500" role="img" aria-label="Midnight Gilt style: a three-quarter fan chart in gold on midnight blue" xmlns="http://www.w3.org/2000/svg"><style>#st-gilt .nm{fill:#DDBE78;text-anchor:middle;dominant-baseline:central}#st-gilt .dt{fill:#93A0C6;font-family:'EB Garamond';text-anchor:middle;dominant-baseline:central}#st-gilt path{stroke:rgba(200,164,92,.55);stroke-width:0.7;stroke-linejoin:round}#st-gilt defs path{stroke:none}</style><rect width="400" height="500" fill="#0B1024"/><defs><path id="st-gilta2" d="M166.6 271.4A47.2 47.2 0 0 1 200 190.8"/><path id="st-giltb2" d="M175.6 262.4A34.6 34.6 0 0 1 200 203.4"/><path id="st-gilta3" d="M200 190.8A47.2 47.2 0 0 1 233.4 271.4"/><path id="st-giltb3" d="M200 203.4A34.6 34.6 0 0 1 224.4 262.4"/><path id="st-gilta4" d="M136.5 211.7A68.8 68.8 0 0 0 151.4 286.6"/><path id="st-giltb4" d="M127.3 207.9A78.7 78.7 0 0 0 144.3 293.7"/><path id="st-gilta5" d="M128.6 208.4A77.2 77.2 0 0 1 200 160.8"/><path id="st-giltb5" d="M137.9 212.3A67.3 67.3 0 0 1 200 170.7"/><path id="st-gilta6" d="M200 160.8A77.2 77.2 0 0 1 271.4 208.4"/><path id="st-giltb6" d="M200 170.7A67.3 67.3 0 0 1 262.1 212.3"/><path id="st-gilta7" d="M248.6 286.6A68.8 68.8 0 0 0 263.5 211.7"/><path id="st-giltb7" d="M255.7 293.7A78.7 78.7 0 0 0 272.7 207.9"/><path id="st-gilta8" d="M104.3 257A97.5 97.5 0 0 0 131 307"/><path id="st-giltb8" d="M96.6 258.6A105.5 105.5 0 0 0 125.4 312.6"/><path id="st-gilta9" d="M97.6 258.4A104.5 104.5 0 0 1 103.5 198"/><path id="st-giltb9" d="M105.3 256.8A96.5 96.5 0 0 1 110.8 201.1"/><path id="st-gilta10" d="M103.5 198A104.5 104.5 0 0 1 142 151.1"/><path id="st-giltb10" d="M110.8 201.1A96.5 96.5 0 0 1 146.4 157.7"/><path id="st-gilta11" d="M142 151.1A104.5 104.5 0 0 1 200 133.5"/><path id="st-giltb11" d="M146.4 157.7A96.5 96.5 0 0 1 200 141.5"/><path id="st-gilta12" d="M200 133.5A104.5 104.5 0 0 1 258 151.1"/><path id="st-giltb12" d="M200 141.5A96.5 96.5 0 0 1 253.6 157.7"/><path id="st-gilta13" d="M258 151.1A104.5 104.5 0 0 1 296.5 198"/><path id="st-giltb13" d="M253.6 157.7A96.5 96.5 0 0 1 289.2 201.1"/><path id="st-gilta14" d="M296.5 198A104.5 104.5 0 0 1 302.4 258.4"/><path id="st-giltb14" d="M289.2 201.1A96.5 96.5 0 0 1 294.7 256.8"/><path id="st-gilta15" d="M269 307A97.5 97.5 0 0 0 295.7 257"/><path id="st-giltb15" d="M274.6 312.6A105.5 105.5 0 0 0 303.4 258.6"/></defs><g class="r1"><path d="M159 279A58 58 0 0 1 200 180L200 212A26 26 0 0 0 181.6 256.4Z" fill="#111A36"/><path d="M200 180A58 58 0 0 1 241 279L218.4 256.4A26 26 0 0 0 200 212Z" fill="#0D142B"/><g class="tx"><text class="nm" font-size="10.9" font-family="'Cormorant Garamond'" font-weight="600"><textPath href="#st-gilta2" startOffset="50%">Edward, Duke of Kent</textPath></text><text class="dt" font-size="6.5"><textPath href="#st-giltb2" startOffset="50%">1767–1820</textPath></text><text class="nm" font-size="11" font-family="'Cormorant Garamond'" font-weight="600"><textPath href="#st-gilta3" startOffset="50%">Victoria</textPath></text><text class="dt" font-size="6.5"><textPath href="#st-giltb3" startOffset="50%">1786–1861</textPath></text></g></g><g class="r2"><path d="M137.8 300.2A88 88 0 0 1 118.7 204.3L146.4 215.8A58 58 0 0 0 159 279Z" fill="#111A36"/><path d="M118.7 204.3A88 88 0 0 1 200 150L200 180A58 58 0 0 0 146.4 215.8Z" fill="#0D142B"/><path d="M200 150A88 88 0 0 1 281.3 204.3L253.6 215.8A58 58 0 0 0 200 180Z" fill="#111A36"/><path d="M281.3 204.3A88 88 0 0 1 262.2 300.2L241 279A58 58 0 0 0 253.6 215.8Z" fill="#0D142B"/><g class="tx"><text class="nm" font-size="8.5" font-family="'Cormorant Garamond'" font-weight="600"><textPath href="#st-gilta4" startOffset="50%">George III</textPath></text><text class="dt" font-size="5.5"><textPath href="#st-giltb4" startOffset="50%">1738–1820</textPath></text><text class="nm" font-size="8.5" font-family="'Cormorant Garamond'" font-weight="600"><textPath href="#st-gilta5" startOffset="50%">Charlotte</textPath></text><text class="dt" font-size="5.5"><textPath href="#st-giltb5" startOffset="50%">1744–1818</textPath></text><text class="nm" font-size="8.5" font-family="'Cormorant Garamond'" font-weight="600"><textPath href="#st-gilta6" startOffset="50%">Francis</textPath></text><text class="dt" font-size="5.5"><textPath href="#st-giltb6" startOffset="50%">1750–1806</textPath></text><text class="nm" font-size="8.5" font-family="'Cormorant Garamond'" font-weight="600"><textPath href="#st-gilta7" startOffset="50%">Augusta Reuss</textPath></text><text class="dt" font-size="5.5"><textPath href="#st-giltb7" startOffset="50%">1757–1831</textPath></text></g></g><g class="r3"><path d="M119.4 318.6A114 114 0 0 1 88.2 260.2L113.7 255.2A88 88 0 0 0 137.8 300.2Z" fill="#111A36"/><path d="M88.2 260.2A114 114 0 0 1 94.7 194.4L118.7 204.3A88 88 0 0 0 113.7 255.2Z" fill="#0D142B"/><path d="M94.7 194.4A114 114 0 0 1 136.7 143.2L151.1 164.8A88 88 0 0 0 118.7 204.3Z" fill="#111A36"/><path d="M136.7 143.2A114 114 0 0 1 200 124L200 150A88 88 0 0 0 151.1 164.8Z" fill="#0D142B"/><path d="M200 124A114 114 0 0 1 263.3 143.2L248.9 164.8A88 88 0 0 0 200 150Z" fill="#111A36"/><path d="M263.3 143.2A114 114 0 0 1 305.3 194.4L281.3 204.3A88 88 0 0 0 248.9 164.8Z" fill="#0D142B"/><path d="M305.3 194.4A114 114 0 0 1 311.8 260.2L286.3 255.2A88 88 0 0 0 281.3 204.3Z" fill="#111A36"/><path d="M311.8 260.2A114 114 0 0 1 280.6 318.6L262.2 300.2A88 88 0 0 0 286.3 255.2Z" fill="#0D142B"/><g class="tx"><text class="nm" font-size="6.6" font-family="'Cormorant Garamond'" font-weight="600"><textPath href="#st-gilta8" startOffset="50%">Frederick</textPath></text><text class="dt" font-size="4.6"><textPath href="#st-giltb8" startOffset="50%">1707–1751</textPath></text><text class="nm" font-size="5.8" font-family="'Cormorant Garamond'" font-weight="600"><textPath href="#st-gilta9" startOffset="50%">Augusta of Saxe-Gotha</textPath></text><text class="dt" font-size="4.6"><textPath href="#st-giltb9" startOffset="50%">1719–1772</textPath></text><text class="nm" font-size="5.6" font-family="'Cormorant Garamond'" font-weight="600"><textPath href="#st-gilta10" startOffset="50%">Charles Louis Frederick</textPath></text><text class="dt" font-size="4.6"><textPath href="#st-giltb10" startOffset="50%">1708–1752</textPath></text><text class="nm" font-size="6.6" font-family="'Cormorant Garamond'" font-weight="600"><textPath href="#st-gilta11" startOffset="50%">Elizabeth Albertine</textPath></text><text class="dt" font-size="4.6"><textPath href="#st-giltb11" startOffset="50%">1713–1761</textPath></text><text class="nm" font-size="6.6" font-family="'Cormorant Garamond'" font-weight="600"><textPath href="#st-gilta12" startOffset="50%">Ernest Frederick</textPath></text><text class="dt" font-size="4.6"><textPath href="#st-giltb12" startOffset="50%">1724–1800</textPath></text><text class="nm" font-size="6.6" font-family="'Cormorant Garamond'" font-weight="600"><textPath href="#st-gilta13" startOffset="50%">Sophie Antoinette</textPath></text><text class="dt" font-size="4.6"><textPath href="#st-giltb13" startOffset="50%">1724–1802</textPath></text><text class="nm" font-size="6.6" font-family="'Cormorant Garamond'" font-weight="600"><textPath href="#st-gilta14" startOffset="50%">Henry XXIV</textPath></text><text class="dt" font-size="4.6"><textPath href="#st-giltb14" startOffset="50%">1724–1779</textPath></text><text class="nm" font-size="6.6" font-family="'Cormorant Garamond'" font-weight="600"><textPath href="#st-gilta15" startOffset="50%">Karoline Ernestine</textPath></text><text class="dt" font-size="4.6"><textPath href="#st-giltb15" startOffset="50%">1727–1796</textPath></text></g></g><g class="r4"><path d="M96.8 341.2A146 146 0 0 1 71.2 306.8L99.5 291.7A114 114 0 0 0 119.4 318.6Z" fill="#111A36"/><path d="M71.2 306.8A146 146 0 0 1 56.8 266.5L88.2 260.2A114 114 0 0 0 99.5 291.7Z" fill="#0D142B"/><path d="M56.8 266.5A146 146 0 0 1 54.7 223.7L86.5 226.8A114 114 0 0 0 88.2 260.2Z" fill="#111A36"/><path d="M54.7 223.7A146 146 0 0 1 65.1 182.1L94.7 194.4A114 114 0 0 0 86.5 226.8Z" fill="#0D142B"/><path d="M65.1 182.1A146 146 0 0 1 87.1 145.4L111.9 165.7A114 114 0 0 0 94.7 194.4Z" fill="#111A36"/><path d="M87.1 145.4A146 146 0 0 1 118.9 116.6L136.7 143.2A114 114 0 0 0 111.9 165.7Z" fill="#0D142B"/><path d="M118.9 116.6A146 146 0 0 1 157.6 98.3L166.9 128.9A114 114 0 0 0 136.7 143.2Z" fill="#111A36"/><path d="M157.6 98.3A146 146 0 0 1 200 92L200 124A114 114 0 0 0 166.9 128.9Z" fill="#0D142B"/><path d="M200 92A146 146 0 0 1 242.4 98.3L233.1 128.9A114 114 0 0 0 200 124Z" fill="#111A36"/><path d="M242.4 98.3A146 146 0 0 1 281.1 116.6L263.3 143.2A114 114 0 0 0 233.1 128.9Z" fill="#0D142B"/><path d="M281.1 116.6A146 146 0 0 1 312.9 145.4L288.1 165.7A114 114 0 0 0 263.3 143.2Z" fill="#111A36"/><path d="M312.9 145.4A146 146 0 0 1 334.9 182.1L305.3 194.4A114 114 0 0 0 288.1 165.7Z" fill="#0D142B"/><path d="M334.9 182.1A146 146 0 0 1 345.3 223.7L313.5 226.8A114 114 0 0 0 305.3 194.4Z" fill="#111A36"/><path d="M345.3 223.7A146 146 0 0 1 343.2 266.5L311.8 260.2A114 114 0 0 0 313.5 226.8Z" fill="#0D142B"/><path d="M343.2 266.5A146 146 0 0 1 328.8 306.8L300.5 291.7A114 114 0 0 0 311.8 260.2Z" fill="#111A36"/><path d="M328.8 306.8A146 146 0 0 1 303.2 341.2L280.6 318.6A114 114 0 0 0 300.5 291.7Z" fill="#0D142B"/><g class="tx"><g transform="translate(95.6 315.4) rotate(-36.6)"><text class="nm" font-size="5.6" y="-2.7" font-family="'EB Garamond'" font-weight="400">George II</text><text class="dt" font-size="4" y="3.5">1683–1760</text></g><g transform="translate(77.6 281.8) rotate(-19.7)"><text class="nm" font-size="5.6" y="-2.7" font-family="'EB Garamond'" font-weight="400">Caroline</text><text class="dt" font-size="4" y="3.5">1683–1737</text></g><g transform="translate(70.2 244.4) rotate(-2.8)"><text class="nm" font-size="5.6" y="-2.7" font-family="'EB Garamond'" font-weight="400">Frederick II</text><text class="dt" font-size="4" y="3.5">1676–1732</text></g><g transform="translate(73.9 206.4) rotate(14.1)"><text class="nm" font-size="5.6" y="-2.7" font-family="'EB Garamond'" font-weight="400">Magdalena</text><text class="dt" font-size="4" y="3.5">1679–1740</text></g><g transform="translate(88.5 171.2) rotate(30.9)"><text class="nm" font-size="5.6" y="-2.7" font-family="'EB Garamond'" font-weight="400">Adolf F. II</text><text class="dt" font-size="4" y="3.5">1658–1708</text></g><g transform="translate(112.7 141.7) rotate(47.8)"><text class="nm" font-size="5.6" y="-2.7" font-family="'EB Garamond'" font-weight="400">Christiane</text><text class="dt" font-size="4" y="3.5">1681–1751</text></g><g transform="translate(144.4 120.5) rotate(64.7)"><text class="nm" font-size="5.6" y="-2.7" font-family="'EB Garamond'" font-weight="400">Ernest F. I</text><text class="dt" font-size="4" y="3.5">1681–1740</text></g><g transform="translate(180.9 109.4) rotate(81.6)"><text class="nm" font-size="5.6" y="-2.7" font-family="'EB Garamond'" font-weight="400">Sophia</text><text class="dt" font-size="4" y="3.5">1683–1742</text></g><g transform="translate(219.1 109.4) rotate(-81.6)"><text class="nm" font-size="5.4" y="-2.7" font-family="'EB Garamond'" font-weight="400">Francis Josias</text><text class="dt" font-size="4" y="3.4">1697–1764</text></g><g transform="translate(255.6 120.5) rotate(-64.7)"><text class="nm" font-size="5.5" y="-2.7" font-family="'EB Garamond'" font-weight="400">Anna Sophie</text><text class="dt" font-size="4" y="3.5">1700–1780</text></g><g transform="translate(287.3 141.7) rotate(-47.8)"><text class="nm" font-size="4.6" y="-2.6" font-family="'EB Garamond'" font-weight="400">Ferdinand A. II</text><text class="dt" font-size="4" y="2.9">1680–1735</text></g><g transform="translate(311.5 171.2) rotate(-30.9)"><text class="nm" font-size="5.6" y="-2.7" font-family="'EB Garamond'" font-weight="400">Antoinette</text><text class="dt" font-size="4" y="3.5">1696–1762</text></g><g transform="translate(326.1 206.4) rotate(-14.1)"><text class="nm" font-size="4.5" y="-2.6" font-family="'EB Garamond'" font-weight="400">Heinrich XXIX</text><text class="dt" font-size="4" y="2.8">1699–1747</text></g><g transform="translate(329.8 244.4) rotate(2.8)"><text class="nm" font-size="5.1" y="-2.6" font-family="'EB Garamond'" font-weight="400">Sofia Teodora</text><text class="dt" font-size="4" y="3.2">1703–1777</text></g><g transform="translate(322.4 281.8) rotate(19.7)"><text class="nm" font-size="5.1" y="-2.6" font-family="'EB Garamond'" font-weight="400">Georg August</text><text class="dt" font-size="4" y="3.2">1691–1758</text></g><g transform="translate(304.4 315.4) rotate(36.6)"><text class="nm" font-size="5.6" y="-2.7" font-family="'EB Garamond'" font-weight="400">Ferdinande</text><text class="dt" font-size="4" y="3.5">1699–1750</text></g></g></g><g class="r5"><path d="M72.7 365.3A180 180 0 0 1 55.4 345.2L82.7 325A146 146 0 0 0 96.8 341.2Z" fill="#111A36"/><path d="M55.4 345.2A180 180 0 0 1 41.3 322.9L71.2 306.8A146 146 0 0 0 82.7 325Z" fill="#0D142B"/><path d="M41.3 322.9A180 180 0 0 1 30.5 298.6L62.5 287.2A146 146 0 0 0 71.2 306.8Z" fill="#111A36"/><path d="M30.5 298.6A180 180 0 0 1 23.5 273.1L56.8 266.5A146 146 0 0 0 62.5 287.2Z" fill="#0D142B"/><path d="M23.5 273.1A180 180 0 0 1 20.2 246.8L54.2 245.2A146 146 0 0 0 56.8 266.5Z" fill="#111A36"/><path d="M20.2 246.8A180 180 0 0 1 20.9 220.4L54.7 223.7A146 146 0 0 0 54.2 245.2Z" fill="#0D142B"/><path d="M20.9 220.4A180 180 0 0 1 25.4 194.3L58.4 202.5A146 146 0 0 0 54.7 223.7Z" fill="#111A36"/><path d="M25.4 194.3A180 180 0 0 1 33.7 169.1L65.1 182.1A146 146 0 0 0 58.4 202.5Z" fill="#0D142B"/><path d="M33.7 169.1A180 180 0 0 1 45.6 145.5L74.8 162.9A146 146 0 0 0 65.1 182.1Z" fill="#111A36"/><path d="M45.6 145.5A180 180 0 0 1 60.9 123.8L87.1 145.4A146 146 0 0 0 74.8 162.9Z" fill="#0D142B"/><path d="M60.9 123.8A180 180 0 0 1 79.1 104.6L102 129.8A146 146 0 0 0 87.1 145.4Z" fill="#111A36"/><path d="M79.1 104.6A180 180 0 0 1 100 88.3L118.9 116.6A146 146 0 0 0 102 129.8Z" fill="#0D142B"/><path d="M100 88.3A180 180 0 0 1 123 75.3L137.6 106A146 146 0 0 0 118.9 116.6Z" fill="#111A36"/><path d="M123 75.3A180 180 0 0 1 147.7 65.8L157.6 98.3A146 146 0 0 0 137.6 106Z" fill="#0D142B"/><path d="M147.7 65.8A180 180 0 0 1 173.6 59.9L178.6 93.6A146 146 0 0 0 157.6 98.3Z" fill="#111A36"/><path d="M173.6 59.9A180 180 0 0 1 200 58L200 92A146 146 0 0 0 178.6 93.6Z" fill="#0D142B"/><path d="M200 58A180 180 0 0 1 226.4 59.9L221.4 93.6A146 146 0 0 0 200 92Z" fill="#111A36"/><path d="M226.4 59.9A180 180 0 0 1 252.3 65.8L242.4 98.3A146 146 0 0 0 221.4 93.6Z" fill="#0D142B"/><path d="M252.3 65.8A180 180 0 0 1 277 75.3L262.4 106A146 146 0 0 0 242.4 98.3Z" fill="#111A36"/><path d="M277 75.3A180 180 0 0 1 300 88.3L281.1 116.6A146 146 0 0 0 262.4 106Z" fill="#0D142B"/><path d="M300 88.3A180 180 0 0 1 320.9 104.6L298 129.8A146 146 0 0 0 281.1 116.6Z" fill="#111A36"/><path d="M320.9 104.6A180 180 0 0 1 339.1 123.8L312.9 145.4A146 146 0 0 0 298 129.8Z" fill="#0D142B"/><path d="M339.1 123.8A180 180 0 0 1 354.4 145.5L325.2 162.9A146 146 0 0 0 312.9 145.4Z" fill="#111A36"/><path d="M354.4 145.5A180 180 0 0 1 366.3 169.1L334.9 182.1A146 146 0 0 0 325.2 162.9Z" fill="#0D142B"/><path d="M366.3 169.1A180 180 0 0 1 374.6 194.3L341.6 202.5A146 146 0 0 0 334.9 182.1Z" fill="#111A36"/><path d="M374.6 194.3A180 180 0 0 1 379.1 220.4L345.3 223.7A146 146 0 0 0 341.6 202.5Z" fill="#0D142B"/><path d="M379.1 220.4A180 180 0 0 1 379.8 246.8L345.8 245.2A146 146 0 0 0 345.3 223.7Z" fill="#111A36"/><path d="M379.8 246.8A180 180 0 0 1 376.5 273.1L343.2 266.5A146 146 0 0 0 345.8 245.2Z" fill="#0D142B"/><path d="M376.5 273.1A180 180 0 0 1 369.5 298.6L337.5 287.2A146 146 0 0 0 343.2 266.5Z" fill="#111A36"/><path d="M369.5 298.6A180 180 0 0 1 358.7 322.9L328.8 306.8A146 146 0 0 0 337.5 287.2Z" fill="#0D142B"/><path d="M358.7 322.9A180 180 0 0 1 344.6 345.2L317.3 325A146 146 0 0 0 328.8 306.8Z" fill="#111A36"/><path d="M344.6 345.2A180 180 0 0 1 327.3 365.3L303.2 341.2A146 146 0 0 0 317.3 325Z" fill="#0D142B"/><g class="tx"><g transform="translate(76.6 344.5) rotate(-40.8)"><text class="nm" font-size="4.4" y="-2.1" font-family="'EB Garamond'" font-weight="400">George I</text><text class="dt" font-size="3.2" y="2.7">1660–1727</text></g><g transform="translate(62.3 325.2) rotate(-32.3)"><text class="nm" font-size="4.4" y="-2.1" font-family="'EB Garamond'" font-weight="400">Sophia Dorothea</text><text class="dt" font-size="3.2" y="2.7">1666–1726</text></g><g transform="translate(51 304.1) rotate(-23.9)"><text class="nm" font-size="4.4" y="-2.1" font-family="'EB Garamond'" font-weight="400">John Frederick</text><text class="dt" font-size="3.2" y="2.7">1654–1686</text></g><g transform="translate(42.9 281.5) rotate(-15.5)"><text class="nm" font-size="3.9" y="-2.1" font-family="'EB Garamond'" font-weight="400">Eleonore Erdmuthe</text><text class="dt" font-size="3.2" y="2.4">1662–1696</text></g><g transform="translate(38.2 258) rotate(-7)"><text class="nm" font-size="4.4" y="-2.1" font-family="'EB Garamond'" font-weight="400">Frederick I</text><text class="dt" font-size="3.2" y="2.7">1646–1691</text></g><g transform="translate(37 234) rotate(1.4)"><text class="nm" font-size="4.2" y="-2.1" font-family="'EB Garamond'" font-weight="400">Magdalena Sibylle</text><text class="dt" font-size="3.2" y="2.6">1648–1681</text></g><g transform="translate(39.4 210.1) rotate(9.8)"><text class="nm" font-size="4.4" y="-2.1" font-family="'EB Garamond'" font-weight="400">Karl</text><text class="dt" font-size="3.2" y="2.7">1652–1718</text></g><g transform="translate(45.2 186.9) rotate(18.3)"><text class="nm" font-size="4.4" y="-2.1" font-family="'EB Garamond'" font-weight="400">Sophia</text><text class="dt" font-size="3.2" y="2.7">1654–1724</text></g><g transform="translate(54.4 164.7) rotate(26.7)"><text class="nm" font-size="4.4" y="-2.1" font-family="'EB Garamond'" font-weight="400">Adolf Friedrich I</text><text class="dt" font-size="3.2" y="2.7">1588–1658</text></g><g transform="translate(66.7 144.1) rotate(35.2)"><text class="nm" font-size="4.4" y="-2.1" font-family="'EB Garamond'" font-weight="400">Marie Katharina</text><text class="dt" font-size="3.2" y="2.7">1616–1665</text></g><g transform="translate(81.9 125.6) rotate(43.6)"><text class="nm" font-size="3.9" y="-2.1" font-family="'EB Garamond'" font-weight="400">Christian William I</text><text class="dt" font-size="3.2" y="2.5">1647–1721</text></g><g transform="translate(99.7 109.5) rotate(52)"><text class="nm" font-size="4.4" y="-2.1" font-family="'EB Garamond'" font-weight="400">Antonie Sybille</text><text class="dt" font-size="3.2" y="2.7">1641–1684</text></g><g transform="translate(119.7 96.2) rotate(60.5)"><text class="nm" font-size="4.4" y="-2.1" font-family="'EB Garamond'" font-weight="400">Ernest</text><text class="dt" font-size="3.2" y="2.7">1655–1715</text></g><g transform="translate(141.3 85.9) rotate(68.9)"><text class="nm" font-size="4.4" y="-2.1" font-family="'EB Garamond'" font-weight="400">Sophie Henriette</text><text class="dt" font-size="3.2" y="2.7">1662–1702</text></g><g transform="translate(164.3 79) rotate(77.3)"><text class="nm" font-size="4.4" y="-2.1" font-family="'EB Garamond'" font-weight="400">Georg Ludwig I</text><text class="dt" font-size="3.2" y="2.7">1643–1693</text></g><g transform="translate(188 75.4) rotate(85.8)"><text class="nm" font-size="4.3" y="-2.1" font-family="'EB Garamond'" font-weight="400">Amalia Catherine</text><text class="dt" font-size="3.2" y="2.7">1640–1697</text></g><g transform="translate(212 75.4) rotate(-85.8)"><text class="nm" font-size="4.4" y="-2.1" font-family="'EB Garamond'" font-weight="400">John Ernest IV</text><text class="dt" font-size="3.2" y="2.7">1658–1729</text></g><g transform="translate(235.7 79) rotate(-77.3)"><text class="nm" font-size="4.1" y="-2.1" font-family="'EB Garamond'" font-weight="400">Charlotte Johanna</text><text class="dt" font-size="3.2" y="2.6">1664–1699</text></g><g transform="translate(258.7 85.9) rotate(-68.9)"><text class="nm" font-size="4.4" y="-2.1" font-family="'EB Garamond'" font-weight="400">Louis Frederick I</text><text class="dt" font-size="3.2" y="2.7">1667–1718</text></g><g transform="translate(280.3 96.2) rotate(-60.5)"><text class="nm" font-size="4.4" y="-2.1" font-family="'EB Garamond'" font-weight="400">Anna Sophie</text><text class="dt" font-size="3.2" y="2.7">1670–1728</text></g><g transform="translate(300.3 109.5) rotate(-52)"><text class="nm" font-size="4.1" y="-2.1" font-family="'EB Garamond'" font-weight="400">Ferdinand Albert I</text><text class="dt" font-size="3.2" y="2.5">1636–1687</text></g><g transform="translate(318.1 125.6) rotate(-43.6)"><text class="nm" font-size="4.4" y="-2.1" font-family="'EB Garamond'" font-weight="400">Christine</text><text class="dt" font-size="3.2" y="2.7">1649–1702</text></g><g transform="translate(333.3 144.1) rotate(-35.2)"><text class="nm" font-size="4.4" y="-2.1" font-family="'EB Garamond'" font-weight="400">Louis Rudolph</text><text class="dt" font-size="3.2" y="2.7">1671–1735</text></g><g transform="translate(345.6 164.7) rotate(-26.7)"><text class="nm" font-size="4.4" y="-2.1" font-family="'EB Garamond'" font-weight="400">Christine Louise</text><text class="dt" font-size="3.2" y="2.7">1671–1747</text></g><g transform="translate(354.8 186.9) rotate(-18.3)"><text class="nm" font-size="4.4" y="-2.1" font-family="'EB Garamond'" font-weight="400">Heinrich X</text><text class="dt" font-size="3.2" y="2.7">1662–1711</text></g><g transform="translate(360.6 210.1) rotate(-9.8)"><text class="nm" font-size="4.3" y="-2.1" font-family="'EB Garamond'" font-weight="400">Erdmute Benigna</text><text class="dt" font-size="3.2" y="2.7">1670–1732</text></g><g transform="translate(363 234) rotate(-1.4)"><text class="nm" font-size="4.1" y="-2.1" font-family="'EB Garamond'" font-weight="400">Wolfgang Dietrich</text><text class="dt" font-size="3.2" y="2.5">1641–1709</text></g><g transform="translate(361.8 258) rotate(7)"><text class="nm" font-size="4.4" y="-2.1" font-family="'EB Garamond'" font-weight="400">Dorothea Renata</text><text class="dt" font-size="3.2" y="2.7">1669–1743</text></g><g transform="translate(357.1 281.5) rotate(15.5)"><text class="nm" font-size="4.4" y="-2.1" font-family="'EB Garamond'" font-weight="400">George Albert II</text><text class="dt" font-size="3.2" y="2.7">1648–1717</text></g><g transform="translate(349 304.1) rotate(23.9)"><text class="nm" font-size="4.4" y="-2.1" font-family="'EB Garamond'" font-weight="400">Anna Dorotea</text><text class="dt" font-size="3.2" y="2.7">1656–1724</text></g><g transform="translate(337.7 325.2) rotate(32.3)"><text class="nm" font-size="4.4" y="-2.1" font-family="'EB Garamond'" font-weight="400">Louis Christian</text><text class="dt" font-size="3.2" y="2.7">1652–1710</text></g><g transform="translate(323.4 344.5) rotate(40.8)"><text class="nm" font-size="4.4" y="-2.1" font-family="'EB Garamond'" font-weight="400">Christine</text><text class="dt" font-size="3.2" y="2.7">1663–1749</text></g></g></g><circle cx="200" cy="238" r="26" fill="#0B1024" stroke="#C9A45C" stroke-width="1.6"/><text class="nm" x="200" y="234.6" font-size="12" font-family="'Cormorant Garamond'" font-weight="600">Victoria</text><text class="dt" x="200" y="244.6" font-size="6">1819–1901</text><text x="200" y="416" font-family="'Cormorant Garamond'" font-weight="600" font-size="10" letter-spacing="2" fill="#DDBE78" text-anchor="middle">THE ANCESTORS OF QUEEN VICTORIA</text><text x="200" y="432" font-family="'EB Garamond'" font-weight="400" font-size="6" letter-spacing="1.8" fill="#93A0C6" text-anchor="middle">SIX GENERATIONS · 1819</text></svg>