<svg id="st-press" class="chart " viewBox="0 0 500 380" role="img" aria-label="Letterpress style: a four-generation pedigree chart in black and vermilion on cream" xmlns="http://www.w3.org/2000/svg"><rect width="500" height="380" fill="#F4EEDF"/><text x="250.0" y="44" text-anchor="middle" font-family="'EB Garamond'" font-weight="600" font-size="19" letter-spacing="3.2" fill="#C8361D" style="font-variant:small-caps">The Ancestors of Victoria</text><line x1="120" y1="56" x2="380" y2="56" stroke="#1B1A18" stroke-width="1.4"/><line x1="120" y1="59.5" x2="380" y2="59.5" stroke="#1B1A18" stroke-width=".5"/><text x="250.0" y="74" text-anchor="middle" font-family="'EB Garamond'" font-size="8" letter-spacing="1.6" fill="#1B1A18">FOUR GENERATIONS · KENSINGTON PALACE, 24 MAY 1819</text><path d="M122 224H127V158H132" fill="none" stroke="#1B1A18" stroke-width=".6"/><path d="M122 224H127V290H132" fill="none" stroke="#1B1A18" stroke-width=".6"/><path d="M232 158H237V125H242" fill="none" stroke="#1B1A18" stroke-width=".6"/><path d="M232 158H237V191H242" fill="none" stroke="#1B1A18" stroke-width=".6"/><path d="M232 290H237V257H242" fill="none" stroke="#1B1A18" stroke-width=".6"/><path d="M232 290H237V323H242" fill="none" stroke="#1B1A18" stroke-width=".6"/><path d="M342 125H347V108.5H352" fill="none" stroke="#1B1A18" stroke-width=".6"/><path d="M342 125H347V141.5H352" fill="none" stroke="#1B1A18" stroke-width=".6"/><path d="M342 191H347V174.5H352" fill="none" stroke="#1B1A18" stroke-width=".6"/><path d="M342 191H347V207.5H352" fill="none" stroke="#1B1A18" stroke-width=".6"/><path d="M342 257H347V240.5H352" fill="none" stroke="#1B1A18" stroke-width=".6"/><path d="M342 257H347V273.5H352" fill="none" stroke="#1B1A18" stroke-width=".6"/><path d="M342 323H347V306.5H352" fill="none" stroke="#1B1A18" stroke-width=".6"/><path d="M342 323H347V339.5H352" fill="none" stroke="#1B1A18" stroke-width=".6"/><rect x="22" y="207" width="100" height="34" fill="#F4EEDF" stroke="#C8361D" stroke-width="1.2"/><text x="27" y="222.5" font-family="'EB Garamond'" font-weight="600" font-size="9.5" fill="#1B1A18">Victoria</text><text x="27" y="233" font-family="'EB Garamond'" font-size="7.4" fill="#C8361D">1819–1901</text><rect x="132" y="143" width="100" height="30" fill="#F4EEDF" stroke="#1B1A18" stroke-width="0.6"/><text x="137" y="156.5" font-family="'EB Garamond'" font-weight="600" font-size="8" fill="#1B1A18">Edward, Duke of Kent</text><text x="137" y="165.6" font-family="'EB Garamond'" font-size="6.2" fill="#C8361D">1767–1820</text><rect x="132" y="275" width="100" height="30" fill="#F4EEDF" stroke="#1B1A18" stroke-width="0.6"/><text x="137" y="288.5" font-family="'EB Garamond'" font-weight="600" font-size="6.9" fill="#1B1A18">Victoria of Saxe-Coburg-Saalfeld</text><text x="137" y="297.6" font-family="'EB Garamond'" font-size="6.2" fill="#C8361D">1786–1861</text><rect x="242" y="112" width="100" height="26" fill="#F4EEDF" stroke="#1B1A18" stroke-width="0.6"/><text x="247" y="123.5" font-family="'EB Garamond'" font-weight="600" font-size="7" fill="#1B1A18">George III of Great Britain</text><text x="247" y="131.7" font-family="'EB Garamond'" font-size="5.5" fill="#C8361D">1738–1820</text><rect x="242" y="178" width="100" height="26" fill="#F4EEDF" stroke="#1B1A18" stroke-width="0.6"/><text x="247" y="189.5" font-family="'EB Garamond'" font-weight="600" font-size="6.6" fill="#1B1A18">Charlotte of Mecklenburg-Strelitz</text><text x="247" y="197.7" font-family="'EB Garamond'" font-size="5.5" fill="#C8361D">1744–1818</text><rect x="242" y="244" width="100" height="26" fill="#F4EEDF" stroke="#1B1A18" stroke-width="0.6"/><text x="247" y="255.5" font-family="'EB Garamond'" font-weight="600" font-size="5.9" fill="#1B1A18">Francis, Duke of Saxe-Coburg-Saalfeld</text><text x="247" y="263.6" font-family="'EB Garamond'" font-size="5.5" fill="#C8361D">1750–1806</text><rect x="242" y="310" width="100" height="26" fill="#F4EEDF" stroke="#1B1A18" stroke-width="0.6"/><text x="247" y="321.5" font-family="'EB Garamond'" font-weight="600" font-size="6" fill="#1B1A18">Countess Augusta Reuss of Ebersdorf</text><text x="247" y="329.6" font-family="'EB Garamond'" font-size="5.5" fill="#C8361D">1757–1831</text><rect x="352" y="97.5" width="124" height="22" fill="#F4EEDF" stroke="#1B1A18" stroke-width="0.6"/><text x="357" y="107" font-family="'EB Garamond'" font-weight="600" font-size="6.2" fill="#1B1A18">Frederick, Prince of Wales</text><text x="357" y="114.4" font-family="'EB Garamond'" font-size="4.8" fill="#C8361D">1707–1751</text><rect x="352" y="130.5" width="124" height="22" fill="#F4EEDF" stroke="#1B1A18" stroke-width="0.6"/><text x="357" y="140" font-family="'EB Garamond'" font-weight="600" font-size="6.2" fill="#1B1A18">Princess Augusta of Saxe-Gotha</text><text x="357" y="147.4" font-family="'EB Garamond'" font-size="4.8" fill="#C8361D">1719–1772</text><rect x="352" y="163.5" width="124" height="22" fill="#F4EEDF" stroke="#1B1A18" stroke-width="0.6"/><text x="357" y="173" font-family="'EB Garamond'" font-weight="600" font-size="6.2" fill="#1B1A18">Duke Charles Louis Frederick of Mecklenburg</text><text x="357" y="180.4" font-family="'EB Garamond'" font-size="4.8" fill="#C8361D">1708–1752</text><rect x="352" y="196.5" width="124" height="22" fill="#F4EEDF" stroke="#1B1A18" stroke-width="0.6"/><text x="357" y="206" font-family="'EB Garamond'" font-weight="600" font-size="5.4" fill="#1B1A18">Princess Elizabeth Albertine of Saxe-Hildburghausen</text><text x="357" y="213.4" font-family="'EB Garamond'" font-size="4.8" fill="#C8361D">1713–1761</text><rect x="352" y="229.5" width="124" height="22" fill="#F4EEDF" stroke="#1B1A18" stroke-width="0.6"/><text x="357" y="239" font-family="'EB Garamond'" font-weight="600" font-size="6.2" fill="#1B1A18">Ernest Frederick of Saxe-Coburg-Saalfeld</text><text x="357" y="246.4" font-family="'EB Garamond'" font-size="4.8" fill="#C8361D">1724–1800</text><rect x="352" y="262.5" width="124" height="22" fill="#F4EEDF" stroke="#1B1A18" stroke-width="0.6"/><text x="357" y="272" font-family="'EB Garamond'" font-weight="600" font-size="6.1" fill="#1B1A18">Sophie Antoinette of Brunswick-Wolfenbüttel</text><text x="357" y="279.4" font-family="'EB Garamond'" font-size="4.8" fill="#C8361D">1724–1802</text><rect x="352" y="295.5" width="124" height="22" fill="#F4EEDF" stroke="#1B1A18" stroke-width="0.6"/><text x="357" y="305" font-family="'EB Garamond'" font-weight="600" font-size="6.2" fill="#1B1A18">Henry XXIV, Count of Reuss-Ebersdorf</text><text x="357" y="312.4" font-family="'EB Garamond'" font-size="4.8" fill="#C8361D">1724–1779</text><rect x="352" y="328.5" width="124" height="22" fill="#F4EEDF" stroke="#1B1A18" stroke-width="0.6"/><text x="357" y="338" font-family="'EB Garamond'" font-weight="600" font-size="5.7" fill="#1B1A18">Countess Karoline Ernestine of Erbach-Schönberg</text><text x="357" y="345.4" font-family="'EB Garamond'" font-size="4.8" fill="#C8361D">1727–1796</text></svg>